<?xml version="1.0" encoding="utf-8"?>
<!-- Generator: Adobe Illustrator 24.3.0, SVG Export Plug-In . SVG Version: 6.00 Build 0)  -->
<svg version="1.1" id="Layer_1" xmlns="http://www.w3.org/2000/svg" xmlns:xlink="http://www.w3.org/1999/xlink" x="0px" y="0px"
	 viewBox="0 0 2100 2100" style="enable-background:new 0 0 2100 2100;" xml:space="preserve">
<style type="text/css">
	.st0{fill:#FFFFFF;}
</style>
<g>
	<path class="st0" d="M1062,1062c-8,0-16,0-24,0c0-8,0-16,0-24c8,0,15.99,0,24,0C1062,1046,1062,1054,1062,1062z M1052.94,1040.91
		c-2.69,0-5.36,0-8.05,0c0-0.11,0-0.2,0-0.3c-0.01-0.41-0.29-0.7-0.67-0.7c-0.39,0-0.67,0.29-0.69,0.7c0,0.1,0,0.2,0,0.31
		c-0.2,0-0.36,0-0.52,0c-0.53,0.01-1.07-0.03-1.59,0.05c-1.55,0.25-2.59,1.51-2.59,3.11c0,3.63,0,7.27,0,10.9
		c0,0.19,0,0.38,0.03,0.56c0.26,1.54,1.52,2.6,3.08,2.61c2.65,0.01,5.3,0,7.95,0c0.05,0,0.11,0,0.16,0
		c0.39-0.04,0.66-0.38,0.61-0.77c-0.05-0.36-0.34-0.58-0.76-0.58c-2.6,0-5.2,0-7.81,0c-0.16,0-0.33,0-0.49-0.03
		c-0.88-0.17-1.44-0.86-1.44-1.81c0-2.8,0-5.61,0-8.41c0-0.82-0.01-1.64,0-2.46c0.01-0.88,0.52-1.61,1.34-1.74
		c0.66-0.1,1.33-0.07,2.03-0.09c0,0.18-0.01,0.31,0,0.45c0.02,0.39,0.31,0.67,0.68,0.66c0.37,0,0.65-0.29,0.67-0.68
		c0.01-0.13,0-0.26,0-0.39c2.71,0,5.38,0,8.06,0c0.08,0.8,0.24,1.06,0.67,1.06c0.15,0,0.32-0.06,0.45-0.15
		c0.32-0.22,0.24-0.58,0.26-0.92c0.51,0,1,0,1.49,0c1.14,0.01,1.86,0.73,1.86,1.86c0,0.7,0,1.39,0,2.09c0,0.87-0.01,1.75,0.01,2.62
		c0.01,0.39,0.31,0.67,0.68,0.66c0.37-0.01,0.66-0.29,0.66-0.68c0-1.66,0.02-3.31-0.01-4.97c-0.02-1.38-1.08-2.62-2.44-2.85
		c-0.53-0.09-1.09-0.06-1.63-0.08c-0.2-0.01-0.4,0-0.6,0c-0.08-0.77-0.26-1.02-0.71-1.01
		C1053.2,1039.92,1053.02,1040.17,1052.94,1040.91z M1061.18,1055.3c0-2.65-2.14-4.8-4.79-4.8c-2.65,0-4.79,2.13-4.8,4.77
		c-0.01,2.65,2.13,4.81,4.78,4.81C1059.02,1060.09,1061.17,1057.95,1061.18,1055.3z M1048.92,1052.99c0.42,0,0.78-0.35,0.78-0.77
		c0-0.42-0.34-0.78-0.77-0.78c-0.44-0.01-0.8,0.35-0.79,0.78C1048.15,1052.64,1048.5,1052.99,1048.92,1052.99z M1044.85,1047.96
		c0-0.43-0.34-0.77-0.77-0.78c-0.44,0-0.79,0.34-0.78,0.79c0,0.43,0.35,0.77,0.78,0.77
		C1044.51,1048.73,1044.85,1048.39,1044.85,1047.96z M1053.77,1047.18c-0.43,0-0.77,0.35-0.77,0.78c0,0.43,0.34,0.77,0.77,0.78
		c0.44,0,0.79-0.35,0.78-0.79C1054.55,1047.52,1054.2,1047.18,1053.77,1047.18z M1048.93,1048.74c0.43,0,0.78-0.35,0.78-0.77
		c0-0.42-0.35-0.78-0.77-0.78c-0.44,0-0.8,0.35-0.79,0.78C1048.15,1048.39,1048.5,1048.74,1048.93,1048.74z M1044.85,1052.21
		c0-0.43-0.33-0.78-0.76-0.78c-0.43-0.01-0.78,0.33-0.79,0.76c-0.01,0.44,0.34,0.8,0.78,0.8
		C1044.49,1052.99,1044.84,1052.64,1044.85,1052.21z"/>
	<path d="M1052.94,1040.91c0.08-0.74,0.25-0.99,0.69-1c0.44,0,0.62,0.25,0.71,1.01c0.2,0,0.4-0.01,0.6,0
		c0.55,0.02,1.1-0.02,1.63,0.08c1.36,0.23,2.42,1.47,2.44,2.85c0.03,1.66,0.01,3.31,0.01,4.97c0,0.39-0.29,0.68-0.66,0.68
		c-0.36,0.01-0.67-0.27-0.68-0.66c-0.01-0.87-0.01-1.75-0.01-2.62c0-0.7,0-1.39,0-2.09c-0.01-1.14-0.73-1.86-1.86-1.86
		c-0.49,0-0.98,0-1.49,0c-0.01,0.35,0.06,0.71-0.26,0.92c-0.13,0.09-0.3,0.15-0.45,0.15c-0.43,0-0.59-0.26-0.67-1.06
		c-2.67,0-5.35,0-8.06,0c0,0.13,0,0.26,0,0.39c-0.02,0.39-0.3,0.67-0.67,0.68c-0.37,0-0.66-0.28-0.68-0.66c-0.01-0.13,0-0.26,0-0.45
		c-0.69,0.03-1.37-0.01-2.03,0.09c-0.82,0.13-1.33,0.86-1.34,1.74c-0.01,0.82,0,1.64,0,2.46c0,2.8,0,5.61,0,8.41
		c0,0.95,0.55,1.65,1.44,1.81c0.16,0.03,0.33,0.03,0.49,0.03c2.6,0,5.2,0,7.81,0c0.42,0,0.71,0.22,0.76,0.58
		c0.05,0.39-0.21,0.73-0.61,0.77c-0.05,0.01-0.11,0-0.16,0c-2.65,0-5.3,0-7.95,0c-1.56,0-2.82-1.07-3.08-2.61
		c-0.03-0.18-0.03-0.37-0.03-0.56c0-3.63,0-7.27,0-10.9c0-1.6,1.04-2.86,2.59-3.11c0.52-0.08,1.06-0.04,1.59-0.05
		c0.16,0,0.33,0,0.52,0c0-0.12,0-0.21,0-0.31c0.01-0.42,0.3-0.71,0.69-0.7c0.38,0,0.66,0.29,0.67,0.7c0,0.09,0,0.19,0,0.3
		C1047.58,1040.91,1050.25,1040.91,1052.94,1040.91z"/>
	<path d="M1061.18,1055.3c0,2.65-2.15,4.79-4.81,4.78c-2.65-0.01-4.79-2.16-4.78-4.81c0.01-2.64,2.15-4.77,4.8-4.77
		C1059.04,1050.5,1061.18,1052.65,1061.18,1055.3z M1056.38,1051.85c-1.9,0-3.44,1.55-3.44,3.45c0,1.9,1.54,3.44,3.44,3.44
		c1.9,0,3.45-1.55,3.44-3.44C1059.83,1053.39,1058.28,1051.84,1056.38,1051.85z"/>
	<path d="M1048.92,1052.99c-0.42,0-0.78-0.35-0.78-0.78c0-0.43,0.36-0.79,0.79-0.78c0.43,0.01,0.77,0.36,0.77,0.78
		C1049.7,1052.64,1049.35,1052.99,1048.92,1052.99z"/>
	<path d="M1044.85,1047.96c0,0.43-0.34,0.77-0.77,0.77c-0.43,0-0.78-0.34-0.78-0.77c0-0.44,0.34-0.79,0.78-0.79
		C1044.51,1047.19,1044.85,1047.53,1044.85,1047.96z"/>
	<path d="M1053.77,1047.18c0.43,0,0.78,0.33,0.78,0.76c0.01,0.44-0.34,0.79-0.78,0.79c-0.43,0-0.77-0.34-0.77-0.78
		C1053,1047.53,1053.34,1047.19,1053.77,1047.18z"/>
	<path d="M1048.93,1048.74c-0.43,0-0.78-0.34-0.78-0.77c-0.01-0.43,0.35-0.79,0.79-0.78c0.42,0,0.77,0.36,0.77,0.78
		C1049.7,1048.39,1049.35,1048.73,1048.93,1048.74z"/>
	<path d="M1044.85,1052.21c0,0.43-0.35,0.78-0.78,0.78c-0.43,0-0.78-0.36-0.78-0.8c0.01-0.43,0.36-0.77,0.79-0.76
		C1044.51,1051.44,1044.85,1051.78,1044.85,1052.21z"/>
	<path class="st0" d="M1056.38,1051.85c1.9,0,3.45,1.54,3.45,3.44c0,1.89-1.54,3.44-3.44,3.44c-1.9,0-3.44-1.53-3.44-3.44
		C1052.94,1053.39,1054.48,1051.85,1056.38,1051.85z M1055.89,1055.25c-0.12-0.15-0.23-0.29-0.34-0.43
		c-0.26-0.32-0.67-0.39-0.97-0.15c-0.31,0.24-0.35,0.64-0.1,0.98c0.24,0.32,0.49,0.63,0.74,0.94c0.29,0.36,0.66,0.4,1.02,0.12
		c0.65-0.51,1.3-1.03,1.93-1.56c0.13-0.11,0.23-0.28,0.27-0.44c0.07-0.28-0.07-0.55-0.32-0.69c-0.25-0.14-0.54-0.11-0.79,0.08
		C1056.85,1054.47,1056.38,1054.86,1055.89,1055.25z"/>
	<path d="M1055.89,1055.25c0.49-0.39,0.97-0.78,1.45-1.17c0.24-0.19,0.54-0.22,0.79-0.08c0.25,0.14,0.39,0.41,0.32,0.69
		c-0.04,0.16-0.14,0.34-0.27,0.44c-0.63,0.53-1.28,1.05-1.93,1.56c-0.36,0.29-0.73,0.24-1.02-0.12c-0.25-0.31-0.5-0.62-0.74-0.94
		c-0.25-0.33-0.21-0.74,0.1-0.98c0.3-0.23,0.71-0.17,0.97,0.15C1055.66,1054.96,1055.77,1055.1,1055.89,1055.25z"/>
</g>
</svg>
